<?xml version="1.0" standalone="no"?>
<!DOCTYPE svg PUBLIC "-//W3C//DTD SVG 20010904//EN"
 "http://www.w3.org/TR/2001/REC-SVG-20010904/DTD/svg10.dtd">
<svg version="1.0" xmlns="http://www.w3.org/2000/svg"
 width="985.000000pt" height="985.000000pt" viewBox="0 0 985.000000 985.000000"
 preserveAspectRatio="xMidYMid meet">
<metadata>
Created by potrace 1.14, written by Peter Selinger 2001-2017
</metadata>
<g transform="translate(0.000000,985.000000) scale(0.100000,-0.100000)"
fill="#000000" stroke="none">
<path d="M2220 8020 l0 -190 188 2 187 3 3 188 2 187 -190 0 -190 0 0 -190z"/>
<path d="M2850 7955 l0 -185 155 0 155 0 2 -192 3 -193 163 -3 162 -2 0 -100
0 -100 -185 0 -185 0 0 -190 0 -190 185 0 185 0 0 -145 0 -145 -295 0 -295 0
0 -195 0 -195 165 0 165 0 0 -180 0 -180 125 0 125 0 0 -110 0 -110 -115 0
-115 0 0 -190 0 -190 -160 0 -160 0 0 -180 0 -180 -180 0 -180 0 0 185 0 185
-205 0 -205 0 0 -205 0 -205 190 0 190 0 0 -175 0 -175 -190 0 -190 0 0 -195
0 -195 205 0 205 0 0 180 0 180 185 0 185 0 0 185 0 185 270 0 270 0 0 -250 0
-250 -265 0 -265 0 0 -185 0 -185 145 0 145 0 0 -180 0 -180 120 0 120 0 0
-205 0 -205 -130 0 -130 0 0 -325 0 -326 848 3 c801 3 849 4 890 22 53 23 124
101 140 154 8 27 12 156 12 426 l0 386 -235 0 -235 0 0 1851 0 1851 953 -5
c578 -3 993 -9 1057 -16 236 -24 401 -67 520 -134 124 -70 221 -200 257 -344
25 -101 22 -332 -5 -435 -46 -171 -132 -282 -272 -350 -152 -74 -309 -98 -644
-98 l-228 0 -247 143 c-328 192 -428 247 -541 302 -84 40 -99 44 -129 35 -55
-15 -80 -37 -91 -80 -13 -47 -11 -60 43 -290 l40 -175 1 -1525 1 -1525 -22
-71 c-41 -130 -135 -242 -249 -298 -114 -56 -114 -56 -811 -56 l-643 0 0 -426
0 -425 753 4 c810 4 775 2 962 58 292 88 572 324 717 605 26 50 61 131 77 180
61 182 61 176 62 1208 1 517 4 979 7 1026 l7 85 223 -203 c122 -111 222 -200
222 -197 0 5 -544 751 -560 768 -4 5 -76 -75 -160 -178 -84 -103 -156 -183
-160 -178 -3 4 -44 175 -89 378 -46 204 -121 538 -167 743 -79 352 -89 402
-80 402 4 0 1336 -777 1342 -783 2 -2 -88 -41 -200 -86 -112 -46 -209 -87
-217 -91 -10 -7 -2 -22 32 -67 25 -32 175 -229 334 -438 158 -209 294 -387
303 -395 19 -20 25 -32 -184 357 -96 177 -177 328 -180 337 -5 14 3 16 53 16
32 0 97 -5 143 -11 359 -44 569 -203 652 -494 19 -67 22 -104 22 -225 0 -130
-3 -153 -27 -225 -102 -307 -419 -476 -962 -513 l-110 -7 0 -495 0 -495 240 2
c280 2 438 19 630 68 615 157 1040 571 1189 1160 79 311 73 714 -14 975 -111
334 -387 626 -716 756 l-96 38 51 18 c87 29 227 109 312 176 294 235 434 597
416 1077 -15 390 -129 668 -376 916 -244 245 -554 385 -1017 461 l-139 22
-1522 3 -1523 4 0 -186 0 -185 -185 0 -185 0 0 185 0 185 -330 0 -330 0 0
-185z m1040 -960 l0 -185 -180 0 -180 0 0 185 0 185 180 0 180 0 0 -185z m370
-1265 l0 -180 -185 0 -185 0 0 180 0 180 185 0 185 0 0 -180z m-380 -385 l0
-185 -185 0 -185 0 0 185 0 185 185 0 185 0 0 -185z m428 -832 l2 -183 -185 0
-185 0 0 185 0 185 183 -2 182 -3 3 -182z m-428 -798 l0 -185 -185 0 -185 0 0
185 0 185 185 0 185 0 0 -185z m0 -810 l0 -185 -185 0 -185 0 0 185 0 185 185
0 185 0 0 -185z"/>
<path d="M1560 7370 l0 -190 175 0 175 0 2 -187 3 -188 188 -3 187 -2 0 190 0
190 -175 0 -175 0 -2 188 -3 187 -187 3 -188 2 0 -190z"/>
<path d="M942 6653 l3 -188 188 -3 187 -2 0 190 0 190 -190 0 -190 0 2 -187z"/>
<path d="M5527 6658 c-10 -8 -33 -68 -54 -141 l-37 -127 21 -28 c26 -35 75
-42 100 -13 18 22 81 219 82 259 2 49 -70 81 -112 50z"/>
<path d="M5103 6622 c-6 -4 -16 -19 -22 -34 -8 -21 -2 -42 34 -123 54 -118 69
-143 101 -157 32 -15 71 3 84 38 9 22 3 43 -41 138 -28 61 -58 119 -67 129
-15 17 -67 23 -89 9z"/>
<path d="M2237 6503 c-4 -3 -7 -89 -7 -190 l0 -183 190 0 190 0 0 190 0 190
-183 0 c-101 0 -187 -3 -190 -7z"/>
<path d="M4806 6238 c-20 -28 -20 -57 -1 -85 11 -16 43 -28 125 -47 61 -14
123 -26 139 -26 45 0 68 30 61 80 -4 33 -36 50 -141 74 -136 32 -163 33 -183
4z"/>
<path d="M1177 5833 c-4 -3 -7 -89 -7 -190 l0 -183 180 0 180 0 2 -187 3 -188
185 0 185 0 3 188 2 187 185 0 185 0 0 190 0 190 -185 0 -185 0 -2 -187 -3
-188 -177 -3 -178 -2 0 190 0 190 -183 0 c-101 0 -187 -3 -190 -7z"/>
<path d="M2540 5650 l0 -190 190 0 190 0 0 190 0 190 -190 0 -190 0 0 -190z"/>
<path d="M880 4290 l0 -190 188 2 187 3 3 188 2 187 -190 0 -190 0 0 -190z"/>
<path d="M1560 3965 l0 -185 190 0 190 0 0 185 0 185 -190 0 -190 0 0 -185z"/>
<path d="M2570 3685 l0 -185 -185 0 -185 0 0 -190 0 -190 190 0 190 0 0 185 0
185 185 0 185 0 0 190 0 190 -190 0 -190 0 0 -185z"/>
<path d="M1210 3310 l0 -190 190 0 190 0 0 190 0 190 -190 0 -190 0 0 -190z"/>
<path d="M2570 2650 l0 -190 190 0 190 0 0 190 0 190 -190 0 -190 0 0 -190z"/>
</g>
</svg>
